<svg preserveAspectRatio="none" width="100%" height="100%" overflow="visible" style="display: block;" viewBox="0 0 6 7" fill="none" xmlns="http://www.w3.org/2000/svg">
<path id="Vector" d="M4.11947 3.74197V0H5.6427V6.45806H4.16575V5.31024H4.09843C3.95255 5.67182 3.71271 5.96754 3.37889 6.19738C3.04787 6.42722 2.63971 6.54215 2.15441 6.54215C1.73082 6.54215 1.35632 6.44825 1.03092 6.26045C0.708317 6.06985 0.455848 5.79375 0.273509 5.43217C0.0911695 5.06778 0 4.62771 0 4.11197V0H1.52323V3.87652C1.52323 4.28575 1.63544 4.6109 1.85986 4.85195C2.08428 5.09301 2.37883 5.21354 2.7435 5.21354C2.96792 5.21354 3.18533 5.15888 3.39572 5.04956C3.60611 4.94025 3.77863 4.77767 3.91328 4.56184C4.05074 4.34321 4.11947 4.06992 4.11947 3.74197Z" fill="var(--fill-0, #0400E1)"/>
</svg>
