<svg preserveAspectRatio="none" width="100%" height="100%" overflow="visible" style="display: block;" viewBox="0 0 7 9" fill="none" xmlns="http://www.w3.org/2000/svg">
<path id="Subtract" fill-rule="evenodd" clip-rule="evenodd" d="M4.95336 2.26467C4.8805 2.00137 4.72877 1.78886 4.49817 1.62713C4.20923 1.42251 3.83333 1.3202 3.37047 1.3202C3.04507 1.3202 2.76595 1.36925 2.53311 1.46736C2.30028 1.56546 2.12215 1.6986 1.99872 1.86678C1.87529 2.03496 1.81217 2.22697 1.80937 2.44279C1.80937 2.62219 1.85004 2.77775 1.93139 2.90949C2.01555 3.04123 2.12916 3.15335 2.27223 3.24585C2.41529 3.33554 2.57379 3.41122 2.74771 3.47289C2.92164 3.53455 3.09696 3.58641 3.27369 3.62845L4.0816 3.83027C4.407 3.90595 4.71978 4.00826 5.01994 4.13719C5.32291 4.26613 5.59361 4.4287 5.83205 4.62491C6.0733 4.82112 6.26406 5.05797 6.40432 5.33547C6.54458 5.61296 6.61471 5.93811 6.61471 6.3109C6.61471 6.81544 6.48567 7.25971 6.22759 7.64372C5.96951 8.02492 5.59641 8.32344 5.10831 8.53927C4.623 8.7523 4.03531 8.85881 3.34523 8.85881C2.67478 8.85881 2.09269 8.7551 1.59898 8.54768C1.10806 8.34026 0.723747 8.03754 0.44603 7.63951C0.171118 7.24149 0.0224418 6.75658 0 6.18477H1.53586C1.5583 6.48469 1.65087 6.73415 1.81357 6.93316C1.97628 7.13218 2.18807 7.28073 2.44896 7.37884C2.71265 7.47694 3.0072 7.52599 3.3326 7.52599C3.67203 7.52599 3.96939 7.47554 4.22466 7.37463C4.48274 7.27092 4.68472 7.12797 4.83059 6.94578C4.97646 6.76078 5.0508 6.54495 5.0536 6.29829C5.0508 6.07405 4.98488 5.88906 4.85584 5.7433C4.7268 5.59474 4.54586 5.47141 4.31303 5.37331C4.083 5.2724 3.8137 5.1827 3.50512 5.10422L2.5247 4.85195C1.81498 4.66976 1.25393 4.39367 0.841566 4.02367C0.432004 3.65088 0.227223 3.15615 0.227223 2.5395C0.227223 2.03216 0.364679 1.58789 0.63959 1.20668C0.917307 0.825477 1.29461 0.529763 1.7715 0.319539C2.24838 0.106513 2.78839 0 3.39151 0C4.00305 0 4.53885 0.106513 4.9989 0.319539C5.46176 0.529763 5.82504 0.822674 6.08873 1.19827C6.31179 1.51362 6.44351 1.86909 6.48391 2.26467H4.95336Z" fill="var(--fill-0, #0400E1)"/>
</svg>
