<svg preserveAspectRatio="none" width="100%" height="100%" overflow="visible" style="display: block;" viewBox="0 0 7 7" fill="none" xmlns="http://www.w3.org/2000/svg">
<path id="Vector" d="M3.09696 6.66828C2.46579 6.66828 1.91877 6.52953 1.45591 6.25204C0.993047 5.97455 0.633977 5.58633 0.378702 5.0874C0.126232 4.58847 0 4.00545 0 3.33834C0 2.67124 0.126232 2.08682 0.378702 1.58508C0.633977 1.08335 0.993047 0.693737 1.45591 0.416242C1.91877 0.138747 2.46579 0 3.09696 0C3.72813 0 4.27515 0.138747 4.73801 0.416242C5.20087 0.693737 5.55854 1.08335 5.81101 1.58508C6.06628 2.08682 6.19392 2.67124 6.19392 3.33834C6.19392 4.00545 6.06628 4.58847 5.81101 5.0874C5.55854 5.58633 5.20087 5.97455 4.73801 6.25204C4.27515 6.52953 3.72813 6.66828 3.09696 6.66828ZM3.10538 5.44899C3.44761 5.44899 3.73375 5.35509 3.96377 5.16729C4.1938 4.97668 4.36492 4.72161 4.47713 4.40207C4.59214 4.08254 4.64965 3.72656 4.64965 3.33414C4.64965 2.93892 4.59214 2.58154 4.47713 2.262C4.36492 1.93966 4.1938 1.68319 3.96377 1.49258C3.73375 1.30198 3.44761 1.20668 3.10538 1.20668C2.75472 1.20668 2.46298 1.30198 2.23015 1.49258C2.00012 1.68319 1.8276 1.93966 1.71259 2.262C1.60038 2.58154 1.54427 2.93892 1.54427 3.33414C1.54427 3.72656 1.60038 4.08254 1.71259 4.40207C1.8276 4.72161 2.00012 4.97668 2.23015 5.16729C2.46298 5.35509 2.75472 5.44899 3.10538 5.44899Z" fill="var(--fill-0, #0400E1)"/>
</svg>
