<svg preserveAspectRatio="none" width="100%" height="100%" overflow="visible" style="display: block;" viewBox="0 0 600 654" fill="none" xmlns="http://www.w3.org/2000/svg">
<g id="Group">
<path id="Vector" d="M299.682 653.015C465.128 653.015 599.249 518.895 599.249 353.448C599.249 188.002 465.128 53.8814 299.682 53.8814C134.235 53.8814 0.114613 188.002 0.114613 353.448C0.114613 518.895 134.235 653.015 299.682 653.015Z" stroke="var(--stroke-0, white)" stroke-width="0.229226" stroke-miterlimit="10"/>
<path id="Vector_2" d="M306.952 433.721C355.782 433.721 395.368 394.136 395.368 345.305C395.368 296.475 355.782 256.89 306.952 256.89C258.121 256.89 218.536 296.475 218.536 345.305C218.536 394.136 258.121 433.721 306.952 433.721Z" stroke="var(--stroke-0, white)" stroke-width="0.229226" stroke-miterlimit="10"/>
<path id="Vector_3" d="M313.641 406.379C345.284 406.379 370.937 380.727 370.937 349.083C370.937 317.439 345.284 291.787 313.641 291.787C281.997 291.787 256.345 317.439 256.345 349.083C256.345 380.727 281.997 406.379 313.641 406.379Z" stroke="var(--stroke-0, white)" stroke-width="0.229226" stroke-miterlimit="10"/>
<path id="Vector_4" d="M313.642 391.546C337.094 391.546 356.105 372.535 356.105 349.083C356.105 325.631 337.094 306.62 313.642 306.62C290.19 306.62 271.179 325.631 271.179 349.083C271.179 372.535 290.19 391.546 313.642 391.546Z" stroke="var(--stroke-0, white)" stroke-width="0.229226" stroke-miterlimit="10"/>
<path id="Vector_5" d="M313.642 374.968C326.332 374.968 336.619 364.682 336.619 351.992C336.619 339.302 326.332 329.015 313.642 329.015C300.953 329.015 290.666 339.302 290.666 351.992C290.666 364.682 300.953 374.968 313.642 374.968Z" stroke="var(--stroke-0, white)" stroke-width="0.229226" stroke-miterlimit="10"/>
<g id="Group_2">
<path id="Vector_6" d="M299.681 520.1C406.82 520.1 493.673 433.247 493.673 326.108C493.673 218.97 406.82 132.117 299.681 132.117C192.543 132.117 105.69 218.97 105.69 326.108C105.69 433.247 192.543 520.1 299.681 520.1Z" stroke="var(--stroke-0, white)" stroke-width="0.229226" stroke-miterlimit="10" stroke-linecap="round" stroke-dasharray="1.45 4.36"/>
</g>
<g id="Group_3">
<path id="Vector_7" d="M306.08 520.102C396.352 520.102 469.533 446.921 469.533 356.648C469.533 266.376 396.352 193.195 306.08 193.195C215.807 193.195 142.627 266.376 142.627 356.648C142.627 446.921 215.807 520.102 306.08 520.102Z" stroke="var(--stroke-0, white)" stroke-width="0.229226" stroke-miterlimit="10" stroke-linecap="round" stroke-dasharray="1.45 4.36"/>
</g>
<g id="Group_4">
<path id="Vector_8" d="M310.734 477.639C389.28 477.639 452.955 413.964 452.955 335.417C452.955 256.87 389.28 193.195 310.734 193.195C232.187 193.195 168.512 256.87 168.512 335.417C168.512 413.964 232.187 477.639 310.734 477.639Z" stroke="var(--stroke-0, white)" stroke-width="0.229226" stroke-miterlimit="10" stroke-linecap="round" stroke-dasharray="1.45 4.36"/>
</g>
<g id="Group_5">
<path id="Vector_9" d="M463.135 381.08C463.135 457.862 388.679 520.393 296.773 520.393C204.867 520.393 130.412 458.153 130.412 381.08C130.412 304.297 204.867 241.766 296.773 241.766C388.679 241.766 463.135 304.007 463.135 381.08Z" stroke="var(--stroke-0, white)" stroke-width="0.229226" stroke-miterlimit="10" stroke-linecap="round" stroke-dasharray="1.45 4.36"/>
</g>
<path id="Vector_10" d="M313.642 357.809C319.263 357.809 323.821 353.251 323.821 347.629C323.821 342.007 319.263 337.45 313.642 337.45C308.02 337.45 303.462 342.007 303.462 347.629C303.462 353.251 308.02 357.809 313.642 357.809Z" fill="var(--fill-0, white)"/>
<path id="Vector_11" d="M359.885 388.929C363.098 388.929 365.702 386.324 365.702 383.112C365.702 379.899 363.098 377.295 359.885 377.295C356.673 377.295 354.069 379.899 354.069 383.112C354.069 386.324 356.673 388.929 359.885 388.929Z" fill="var(--fill-0, white)"/>
<path id="Vector_12" d="M308.696 312.437C311.909 312.437 314.513 309.833 314.513 306.62C314.513 303.408 311.909 300.804 308.696 300.804C305.484 300.804 302.879 303.408 302.879 306.62C302.879 309.833 305.484 312.437 308.696 312.437Z" fill="var(--fill-0, white)"/>
<path id="Vector_13" d="M218.536 349.665C220.946 349.665 222.899 347.711 222.899 345.302C222.899 342.892 220.946 340.939 218.536 340.939C216.127 340.939 214.174 342.892 214.174 345.302C214.174 347.711 216.127 349.665 218.536 349.665Z" fill="var(--fill-0, white)"/>
<path id="Vector_14" d="M151.191 97.2364C153.952 97.2364 156.191 94.9979 156.191 92.2364C156.191 89.475 153.952 87.2364 151.191 87.2364C148.43 87.2364 146.191 89.475 146.191 92.2364C146.191 94.9979 148.43 97.2364 151.191 97.2364Z" fill="var(--fill-0, white)"/>
<path id="Vector_15" d="M229.556 453.685C297.874 428.168 342.185 377.839 328.527 341.273C314.869 304.706 248.415 295.749 180.097 321.266C111.78 346.783 67.469 397.112 81.1268 433.678C94.7846 470.245 161.239 479.202 229.556 453.685Z" stroke="var(--stroke-0, white)" stroke-width="0.229226" stroke-miterlimit="10" stroke-dasharray="23.27 23.27"/>
<path id="Vector_16" d="M510.983 277.173C535.273 164.42 479.09 56.6705 385.496 36.5078C291.901 16.3452 196.337 91.4046 172.047 204.158C147.757 316.911 203.939 424.661 297.534 444.823C391.129 464.986 486.693 389.927 510.983 277.173Z" stroke="var(--stroke-0, white)" stroke-width="0.229226" stroke-miterlimit="10" stroke-dasharray="23.27 23.27"/>
</g>
</svg>
