<svg preserveAspectRatio="none" width="100%" height="100%" overflow="visible" style="display: block;" viewBox="0 0 4 9" fill="none" xmlns="http://www.w3.org/2000/svg">
<path id="Vector" d="M3.72394 1.54724V2.72449L0 2.71849V1.54124L3.72394 1.54724ZM0.925735 0H2.44897V6.06284C2.44897 6.26746 2.47983 6.42442 2.54154 6.53374C2.60606 6.64025 2.69022 6.71313 2.79401 6.75237C2.8978 6.79161 3.01282 6.81123 3.13905 6.81123C3.23443 6.81123 3.32139 6.80423 3.39994 6.79021C3.48129 6.7762 3.543 6.76358 3.58508 6.75237L3.84176 7.94223C3.76041 7.97026 3.64399 8.0011 3.49251 8.03473C3.34383 8.06837 3.16149 8.08799 2.94549 8.0936C2.56398 8.10481 2.22034 8.04735 1.91457 7.92121C1.60881 7.79228 1.36615 7.59326 1.18662 7.32418C1.00989 7.05509 0.92293 6.71874 0.925735 6.31511V0Z" fill="var(--fill-0, #0400E1)"/>
</svg>
