<svg preserveAspectRatio="none" width="100%" height="100%" overflow="visible" style="display: block;" viewBox="0 0 12 12" fill="none" xmlns="http://www.w3.org/2000/svg">
<path id="Vector" d="M6.61038 10.3949C6.2015 10.066 5.69171 9.88824 5.16701 9.89155H5.11306C3.80345 9.93721 2.52934 9.46076 1.57102 8.56702C0.612699 7.67327 0.0486668 6.43544 0.00300403 5.12583C-0.0426588 3.81623 0.433785 2.54212 1.32753 1.58379C2.22127 0.625472 3.45911 0.0614398 4.76872 0.015777C6.04172 -0.0848905 7.30578 0.298863 8.30796 1.09025C9.31014 1.88163 9.97653 3.02227 10.1738 4.28391C10.1741 4.28965 10.1741 4.2954 10.1738 4.30113C10.2453 4.81555 10.5012 5.28647 10.894 5.62628C11.2191 5.91287 11.4806 6.26429 11.6618 6.65796C11.8429 7.05163 11.9397 7.47884 11.946 7.91215C11.9411 8.69404 11.6513 9.44732 11.1309 10.0309C10.6104 10.6145 9.89515 10.9883 9.11892 11.0824C8.97277 11.1014 8.82555 11.111 8.67816 11.1111C7.92771 11.1132 7.19874 10.8607 6.61038 10.3949ZM9.87074 6.74712C9.4328 7.81885 8.63725 8.70586 7.61931 9.25738C7.58818 9.27347 7.56187 9.29752 7.54308 9.32709C7.52429 9.35666 7.51368 9.39069 7.51233 9.42571C7.51099 9.46072 7.51897 9.49546 7.53544 9.52639C7.55191 9.55731 7.5763 9.58331 7.6061 9.60173C8.04584 9.87136 8.57053 9.96676 9.07703 9.86917C9.51196 9.78969 9.90789 9.56726 10.202 9.23716C10.4962 8.90706 10.6716 8.48819 10.7006 8.04701C10.7251 7.54792 10.5529 7.05913 10.2208 6.68571C10.2017 6.66391 10.1781 6.64648 10.1517 6.63459C10.1253 6.62271 10.0966 6.61665 10.0676 6.61684C10.0255 6.61641 9.98429 6.62859 9.9492 6.65181C9.91412 6.67503 9.88679 6.70823 9.87074 6.74712ZM5.01263 1.20721C4.5159 1.20584 4.02386 1.30335 3.5652 1.49407C3.10654 1.68479 2.69043 1.96489 2.34112 2.31805C1.99181 2.67121 1.71629 3.09037 1.53062 3.5511C1.34494 4.01182 1.25283 4.50489 1.25965 5.00158C1.26647 5.49826 1.37208 5.98862 1.57032 6.44407C1.76857 6.89953 2.0555 7.31097 2.41437 7.65441C2.77324 7.99785 3.19689 8.26643 3.66061 8.44448C4.12433 8.62254 4.61885 8.70651 5.11536 8.69151H5.11938C5.16465 8.69191 5.2095 8.68275 5.25099 8.66463C5.29249 8.64652 5.3297 8.61986 5.3602 8.58639C5.39069 8.55292 5.41377 8.51339 5.42795 8.47039C5.44213 8.42739 5.44708 8.38188 5.44248 8.33684C5.43559 8.28748 5.431 8.23698 5.42699 8.18705C5.40122 7.76669 5.45881 7.3454 5.59642 6.94737C5.73404 6.54935 5.94897 6.18246 6.22887 5.86778C6.50877 5.55311 6.84811 5.29687 7.22737 5.1138C7.60664 4.93072 8.01835 4.82442 8.43884 4.801C8.49968 4.79641 8.55994 4.79354 8.6202 4.79297C8.66704 4.79194 8.71312 4.78094 8.75539 4.76072C8.79765 4.74049 8.83512 4.71149 8.86531 4.67566C8.8955 4.63983 8.91771 4.59798 8.93046 4.5529C8.94322 4.50781 8.94623 4.46053 8.93929 4.41419C8.79053 3.51071 8.3228 2.6905 7.62099 2.10241C6.91917 1.51432 6.02978 1.19731 5.11421 1.20893L5.01263 1.20721ZM8.5938 5.9976L8.53239 6.00104C8.27243 6.01597 8.01796 6.08206 7.78359 6.19553C7.54921 6.30899 7.33953 6.4676 7.16658 6.66225C6.99362 6.85691 6.86078 7.08379 6.77568 7.32989C6.69058 7.57598 6.65488 7.83645 6.67064 8.09637C6.67064 8.11015 6.67064 8.12449 6.67466 8.13827C6.67826 8.16453 6.68816 8.18954 6.70353 8.21114C6.71889 8.23275 6.73926 8.25031 6.7629 8.26232C6.78653 8.27434 6.81273 8.28045 6.83924 8.28013C6.86575 8.27982 6.89178 8.27308 6.91513 8.26051C7.7623 7.8314 8.41765 7.10007 8.75162 6.21109C8.76024 6.18663 8.76281 6.16045 8.75911 6.13479C8.75542 6.10912 8.74556 6.08473 8.73039 6.0637C8.71523 6.04267 8.69519 6.02562 8.67201 6.01401C8.64882 6.0024 8.62317 5.99657 8.59724 5.99702L8.5938 5.9976Z" fill="var(--fill-0, #0400E1)"/>
</svg>
