<svg preserveAspectRatio="none" width="100%" height="100%" overflow="visible" style="display: block;" viewBox="0 0 36 10" fill="none" xmlns="http://www.w3.org/2000/svg">
<g id="Logo">
<path id="Vector" d="M11.9465 5.41582C12.1757 3.77526 11.0343 2.25913 9.39709 2.02944C7.75986 1.79976 6.24679 2.94349 6.01757 4.58404C5.78835 6.22459 6.92976 7.74072 8.567 7.97041C10.2042 8.2001 11.7173 7.05637 11.9465 5.41582Z" fill="var(--fill-0, #0400E1)"/>
<path id="Vector_2" d="M15.8352 2.00114H14.1046C14.0312 2.00114 13.9717 2.06077 13.9717 2.13433V9.86741C13.9717 9.94097 14.0312 10.0006 14.1046 10.0006H15.8352C15.9087 10.0006 15.9682 9.94097 15.9682 9.86741V2.13433C15.9682 2.06077 15.9087 2.00114 15.8352 2.00114Z" fill="var(--fill-0, #0400E1)"/>
<path id="Vector_3" d="M19.8261 2.00114H18.0955C18.0221 2.00114 17.9625 2.06077 17.9625 2.13433V9.86741C17.9625 9.94097 18.0221 10.0006 18.0955 10.0006H19.8261C19.8995 10.0006 19.959 9.94097 19.959 9.86741V2.13433C19.959 2.06077 19.8995 2.00114 19.8261 2.00114Z" fill="var(--fill-0, #0400E1)"/>
<path id="Vector_4" d="M3.85903 0H0.133228C0.0598192 0 0.000309414 0.0596305 0.000309414 0.133188V3.86654C0.000309414 3.9401 0.0598192 3.99973 0.133228 3.99973H3.85903C3.93244 3.99973 3.99195 3.9401 3.99195 3.86654V0.133188C3.99195 0.0596305 3.93244 0 3.85903 0Z" fill="var(--fill-0, #0400E1)"/>
<path id="Vector_5" d="M3.85903 6.00016H0.133228C0.0598192 6.00016 0.000309414 6.05979 0.000309414 6.13335V9.8667C0.000309414 9.94026 0.0598192 9.99989 0.133228 9.99989H3.85903C3.93244 9.99989 3.99195 9.94026 3.99195 9.8667V6.13335C3.99195 6.05979 3.93244 6.00016 3.85903 6.00016Z" fill="var(--fill-0, #0400E1)"/>
<path id="Vector_6" d="M35.7937 0H30.0714C29.998 0 29.9385 0.0596305 29.9385 0.133188V7.86627C29.9385 7.93983 29.998 7.99946 30.0714 7.99946H35.7937C35.8671 7.99946 35.9266 7.93983 35.9266 7.86627V0.133188C35.9266 0.0596305 35.8671 0 35.7937 0Z" fill="var(--fill-0, #0400E1)"/>
<path id="Vector_7" d="M27.1443 2.00114H22.088C22.0146 2.00114 21.9551 2.06077 21.9551 2.13433V3.86849C21.9551 3.94205 22.0146 4.00168 22.088 4.00168H27.1443C27.2177 4.00168 27.2772 3.94205 27.2772 3.86849V2.13433C27.2772 2.06077 27.2177 2.00114 27.1443 2.00114Z" fill="var(--fill-0, #0400E1)"/>
<path id="Vector_8" d="M27.8103 6.00016H22.088C22.0146 6.00016 21.9551 6.05979 21.9551 6.13335V7.86752C21.9551 7.94108 22.0146 8.00071 22.088 8.00071H27.8103C27.8837 8.00071 27.9432 7.94108 27.9432 7.86752V6.13335C27.9432 6.05979 27.8837 6.00016 27.8103 6.00016Z" fill="var(--fill-0, #0400E1)"/>
</g>
</svg>
