<svg preserveAspectRatio="none" width="100%" height="100%" overflow="visible" style="display: block;" viewBox="0 0 7 9" fill="none" xmlns="http://www.w3.org/2000/svg">
<path id="Vector" d="M2.66356 8.72202C2.15581 8.72202 1.70137 8.59168 1.30022 8.33101C0.899073 8.07033 0.582082 7.69193 0.349249 7.1958C0.116416 6.69968 0 6.09704 0 5.38788C0 4.67032 0.117819 4.06488 0.353457 3.57156C0.591901 3.07543 0.913098 2.70123 1.31705 2.44896C1.721 2.19389 2.17124 2.06636 2.66776 2.06636C3.04647 2.06636 3.35785 2.13083 3.6019 2.25976C3.84596 2.3859 4.03952 2.53866 4.18258 2.71805C4.32565 2.89464 4.43646 3.06142 4.515 3.21838H4.57812V0H6.10556V8.6085H4.60757V7.59102H4.515C4.43646 7.74799 4.32284 7.91477 4.17417 8.09135C4.02549 8.26514 3.82912 8.4137 3.58507 8.53703C3.34102 8.66036 3.03384 8.72202 2.66356 8.72202ZM3.08855 7.4733C3.41115 7.4733 3.68606 7.3864 3.91328 7.21262C4.1405 7.03603 4.31302 6.79077 4.43084 6.47684C4.54866 6.16291 4.60757 5.79712 4.60757 5.37948C4.60757 4.96183 4.54866 4.59885 4.43084 4.29052C4.31583 3.98219 4.14471 3.74254 3.91749 3.57156C3.69307 3.40058 3.41676 3.31508 3.08855 3.31508C2.74911 3.31508 2.46579 3.40338 2.23857 3.57997C2.01134 3.75655 1.84022 4.00041 1.72521 4.31154C1.6102 4.62267 1.55269 4.97865 1.55269 5.37948C1.55269 5.7831 1.6102 6.14329 1.72521 6.46002C1.84303 6.77396 2.01555 7.02202 2.24277 7.20421C2.4728 7.3836 2.75472 7.4733 3.08855 7.4733Z" fill="var(--fill-0, #0400E1)"/>
</svg>
