<svg preserveAspectRatio="none" overflow="visible" style="display: block;" width="248" height="47.6922" viewBox="0 0 248 47.6922" fill="none" xmlns="http://www.w3.org/2000/svg">
<g id="Logo" clip-path="url(#clip0_0_31)">
<path id="Vector" d="M30.3375 21.2217C28.0577 20.3147 25.1578 19.4397 21.6345 18.5965C19.4379 18.0491 17.7586 17.5956 16.5983 17.236C15.438 16.8782 14.4743 16.3928 13.7073 15.7817C12.9403 15.1705 12.5577 14.3999 12.5577 13.4735C12.5577 12.7153 12.8269 12.0404 13.3654 11.4487C13.9039 10.8589 14.6603 10.3947 15.6346 10.0564C16.6089 9.71806 17.7586 9.54977 19.0854 9.54977C21.0747 9.54977 22.6707 9.93949 23.8718 10.7207C25.0746 11.5001 25.7991 12.5027 26.0471 13.725H37.673C37.425 11.3212 36.5959 9.0768 35.1859 6.98829C33.7758 4.90154 31.7564 3.21337 29.1241 1.92731C26.4935 0.643029 23.312 0 19.5831 0C15.8543 0 12.6214 0.589886 9.88457 1.77143C7.14949 2.95297 5.05566 4.60749 3.60486 6.73674C2.15406 8.866 1.42954 11.323 1.42954 14.1059C1.42954 17.0996 2.22669 19.5141 3.82274 21.3493C5.4188 23.1827 7.31423 24.5325 9.5108 25.397C11.7074 26.2614 14.5257 27.1365 17.9658 28.0222C20.2864 28.6121 22.0685 29.1187 23.312 29.5403C24.5555 29.9619 25.5918 30.5093 26.4209 31.1842C27.2499 31.8591 27.6644 32.7236 27.6644 33.7776C27.6644 34.7466 27.3225 35.5597 26.6387 36.2133C25.955 36.867 25.0639 37.3523 23.9657 37.6677C22.8674 37.9847 21.6965 38.1424 20.4529 38.1424C18.2563 38.1424 16.3609 37.6464 14.7649 36.6562C13.1688 35.6659 12.1237 34.2205 11.6259 32.3233H0C0.373771 34.7696 1.29491 37.1522 2.76697 39.471C4.23903 41.7898 6.4356 43.7401 9.35669 45.322C12.2778 46.9039 15.9145 47.6939 20.2669 47.6939C23.7903 47.6939 26.9505 47.1359 29.7476 46.0182C32.5447 44.9004 34.7519 43.2459 36.3692 41.0529C37.9847 38.8598 38.7943 36.2239 38.7943 33.147C38.7943 30.07 37.9546 27.381 36.2771 25.4625C34.5995 23.5441 32.6191 22.1305 30.341 21.2253L30.3375 21.2217Z" fill="white"/>
<path id="Vector_2" d="M56.3226 1.07526L41.0298 46.6169H51.4742L54.4201 37.4445H70.7207L73.6666 46.6169H83.925L68.6305 1.07526H56.3208H56.3226ZM68.0016 28.6529H57.1268L62.5421 11.6153L68.0034 28.6529H68.0016Z" fill="white"/>
<path id="Vector_3" d="M110.578 1.58189C110.578 3.43657 110.131 5.208 109.24 6.8944C108.411 8.46211 107.375 9.92886 106.135 11.2964C104.139 9.21497 101.85 7.38863 99.2638 5.81914C94.5394 2.9512 89.3579 1.37109 83.7213 1.07526V10.4993C87.4094 10.7951 90.9434 11.8385 94.3215 13.6294C96.3533 14.7064 98.1531 16.0226 99.7279 17.5726C97.4906 19.7213 95.666 21.5583 94.2595 23.0853C92.7059 24.7717 91.3898 26.7007 90.311 28.8725C89.2339 31.0443 88.6954 33.3525 88.6954 35.7988C88.6954 38.2451 89.2339 40.3638 90.311 42.1565C91.388 43.9491 92.8388 45.3185 94.6634 46.2679C96.4862 47.2174 98.518 47.6904 100.755 47.6904C103.45 47.6904 105.843 47.0474 107.935 45.7613C110.029 44.4753 111.666 42.6099 112.845 40.1636C114.027 37.7173 114.617 34.8511 114.617 31.5615C114.617 26.9204 113.49 22.5095 111.247 18.3325C112.379 17.2271 113.379 16.2086 114.245 15.275C115.986 13.3991 117.467 11.2999 118.689 8.98114C119.912 6.66234 120.523 4.23726 120.523 1.70766V1.07526H110.576V1.58189H110.578ZM105.138 36.0539C104.745 37.2354 104.185 38.1087 103.459 38.6791C102.732 39.2495 101.894 39.533 100.941 39.533C100.403 39.533 99.8749 39.3859 99.3559 39.0901C98.8386 38.7943 98.4135 38.3514 98.0822 37.7615C97.751 37.1717 97.5845 36.4755 97.5845 35.6748C97.5845 34.2417 98.0202 32.7856 98.89 31.31C99.7598 29.8344 100.828 28.4314 102.091 27.1046C102.753 26.4085 103.559 25.6025 104.502 24.6902C105.319 26.8407 105.728 29.1737 105.728 31.6909C105.728 33.4198 105.531 34.8741 105.138 36.0557V36.0539Z" fill="white"/>
<path id="Vector_4" d="M155.756 3.76429C152.233 1.9716 148.068 1.07526 143.261 1.07526H128.776V46.6169H143.261C148.068 46.6169 152.233 45.7206 155.756 43.9297C159.28 42.137 161.983 39.533 163.87 36.1177C165.754 32.7023 166.699 28.6121 166.699 23.847C166.699 19.0818 165.756 14.9916 163.87 11.5763C161.983 8.16097 159.28 5.55697 155.756 3.76429ZM154.203 30.9309C153.333 32.9131 151.996 34.4525 150.192 35.549C148.389 36.6455 146.12 37.1929 143.385 37.1929H139.406V10.4373H143.385C146.12 10.4373 148.389 10.9846 150.192 12.0811C151.996 13.1777 153.331 14.7277 154.203 16.7294C155.073 18.7329 155.508 21.1048 155.508 23.8452C155.508 26.5856 155.073 28.9469 154.203 30.9291V30.9309Z" fill="white"/>
<path id="Vector_5" d="M183.453 1.07526L168.158 46.6169H178.603L181.55 37.4445H197.851L200.797 46.6169H211.053L195.761 1.07526H183.453ZM195.132 28.6529H184.257L189.67 11.617L195.132 28.6529Z" fill="white"/>
<path id="Vector_6" d="M238.053 1.07526V1.58189C238.053 3.43657 237.607 5.208 236.716 6.8944C235.887 8.46211 234.851 9.92886 233.611 11.2982C231.614 9.21674 229.326 7.38863 226.739 5.81914C222.015 2.9512 216.833 1.37109 211.197 1.07526V10.4993C214.885 10.7951 218.419 11.8385 221.797 13.6294C223.829 14.7064 225.629 16.0226 227.203 17.5726C224.964 19.7213 223.142 21.5583 221.735 23.0853C220.18 24.7717 218.864 26.7007 217.786 28.8725C216.709 31.0443 216.171 33.3525 216.171 35.7988C216.171 38.2451 216.709 40.3638 217.786 42.1565C218.864 43.9491 220.314 45.3185 222.139 46.2679C223.962 47.2174 225.994 47.6904 228.231 47.6904C230.925 47.6904 233.318 47.0474 235.41 45.7613C237.504 44.4753 239.141 42.6099 240.323 40.1636C241.504 37.7173 242.094 34.8511 242.094 31.5615C242.094 26.9204 240.967 22.5113 238.725 18.3325C239.857 17.2271 240.856 16.2086 241.72 15.275C243.462 13.3991 244.943 11.2999 246.167 8.98114C247.389 6.66234 248 4.23726 248 1.70766V1.07526H238.053ZM232.613 36.0539C232.22 37.2354 231.66 38.1087 230.936 38.6791C230.21 39.2478 229.37 39.533 228.417 39.533C227.878 39.533 227.35 39.3859 226.831 39.0901C226.314 38.7943 225.889 38.3514 225.558 37.7615C225.227 37.1717 225.06 36.4755 225.06 35.6748C225.06 34.2417 225.496 32.7856 226.366 31.31C227.237 29.8344 228.303 28.4314 229.568 27.1046C230.231 26.4067 231.035 25.6025 231.979 24.6902C232.796 26.8407 233.205 29.1737 233.205 31.6909C233.205 33.4198 233.007 34.8741 232.613 36.0557V36.0539Z" fill="white"/>
</g>
<defs>
<clipPath id="clip0_0_31">
<rect width="248" height="47.6922" fill="white"/>
</clipPath>
</defs>
</svg>
