<svg width="62" height="69" viewBox="0 0 62 69" fill="none" xmlns="http://www.w3.org/2000/svg">
<path d="M5.22 2.60999C5.22 4.04999 4.05 5.22 2.61 5.22C1.17 5.22 0 4.04999 0 2.60999C0 1.16999 1.17 0 2.61 0C4.05 0 5.22 1.16999 5.22 2.60999Z" fill="#DD451D"/>
<path d="M19.6204 2.60999C19.6204 4.04999 18.4504 5.22 17.0104 5.22C15.5704 5.22 14.4004 4.04999 14.4004 2.60999C14.4004 1.16999 15.5704 0 17.0104 0C18.4504 0 19.6204 1.16999 19.6204 2.60999Z" fill="#DD451D"/>
<path d="M61.3802 2.60999C61.3802 4.04999 60.2102 5.22 58.7702 5.22C57.3302 5.22 56.1602 4.04999 56.1602 2.60999C56.1602 1.16999 57.3302 0 58.7702 0C60.2102 0 61.3802 1.16999 61.3802 2.60999Z" fill="#DD451D"/>
<path d="M33.7591 2.60999C33.7591 4.04999 32.5891 5.22 31.1491 5.22C29.7091 5.22 28.5391 4.04999 28.5391 2.60999C28.5391 1.16999 29.7091 0 31.1491 0C32.5891 0 33.7591 1.16999 33.7591 2.60999Z" fill="#DD451D"/>
<path d="M47.6204 2.60999C47.6204 4.04999 46.4504 5.22 45.0104 5.22C43.5704 5.22 42.4004 4.04999 42.4004 2.60999C42.4004 1.16999 43.5704 0 45.0104 0C46.4504 0 47.6204 1.16999 47.6204 2.60999Z" fill="#DD451D"/>
<path d="M51.8605 2.61035L44.9606 14.5703L38.0605 2.61035L31.1606 14.5703L24.2605 2.61035L17.3605 14.5703L10.4606 2.61035L3.56055 14.5703V40.5604C3.56055 55.8104 15.9305 68.1804 31.1805 68.1804C46.4305 68.1804 58.8006 55.8104 58.8006 40.5604V14.5703L51.9005 2.61035H51.8605Z" fill="#FFAB38"/>
</svg>
