<svg width="77" height="77" viewBox="0 0 77 77" fill="none" xmlns="http://www.w3.org/2000/svg">
<path d="M65.09 26.53L49.11 27.41L49.99 11.43C50.33 5.21999 45.39 0 39.17 0H37.35C31.13 0 26.19 5.21999 26.53 11.43L27.41 27.41L11.43 26.53C5.22001 26.19 0 31.13 0 37.35V39.17C0 45.39 5.22001 50.33 11.43 49.99L27.41 49.11L26.53 65.09C26.19 71.3 31.13 76.52 37.35 76.52H39.17C45.39 76.52 50.33 71.3 49.99 65.09L49.11 49.11L65.09 49.99C71.3 50.33 76.52 45.39 76.52 39.17V37.35C76.52 31.13 71.3 26.19 65.09 26.53Z" fill="#FFAB38"/>
</svg>
