<svg width="86" height="64" viewBox="0 0 86 64" fill="none" xmlns="http://www.w3.org/2000/svg">
<path d="M57.7063 40.8216C62.6463 40.5816 65.9463 39.3516 66.6563 37.0916C67.5363 34.3316 64.3863 30.5916 58.6163 26.8016C72.5463 29.8916 83.5463 29.3416 84.9363 24.9816C86.6463 19.6216 73.1463 10.5216 54.7763 4.67161C36.4063 -1.18839 20.1363 -1.58838 18.4263 3.77162C17.5463 6.53162 20.6963 10.2716 26.4663 14.0616C12.5363 10.9716 1.53631 11.5216 0.146309 15.8816C-1.47369 20.9516 10.5363 29.3616 27.3863 35.2216C22.4463 35.4616 19.1463 36.6916 18.4363 38.9516C16.7263 44.3116 30.2263 53.4116 48.5963 59.2616C66.9663 65.1216 83.2363 65.5216 84.9463 60.1616C86.5663 55.0916 74.5563 46.6816 57.7063 40.8216Z" fill="#FFAB38"/>
</svg>
