<svg width="72" height="72" viewBox="0 0 72 72" fill="none" xmlns="http://www.w3.org/2000/svg">
<path d="M13.6698 6.84953C13.6698 10.6195 10.6098 13.6795 6.83977 13.6795C3.06977 13.6795 0.00976562 10.6195 0.00976562 6.84953C0.00976562 3.07953 3.06977 0.0195312 6.83977 0.0195312C10.6098 0.0195312 13.6698 3.07953 13.6698 6.84953Z" fill="#DD451D"/>
<path d="M71.0799 6.84953C71.0799 10.6195 68.0199 13.6795 64.2499 13.6795C60.4799 13.6795 57.4199 10.6195 57.4199 6.84953C57.4199 3.07953 60.4799 0.0195312 64.2499 0.0195312C68.0199 0.0195312 71.0799 3.07953 71.0799 6.84953Z" fill="#DD451D"/>
<path d="M13.6698 63.7802C13.6698 67.5502 10.6098 70.6102 6.83977 70.6102C3.06977 70.6102 0.00976562 67.5502 0.00976562 63.7802C0.00976562 60.0102 3.06977 56.9502 6.83977 56.9502C10.6098 56.9502 13.6698 60.0102 13.6698 63.7802Z" fill="#DD451D"/>
<path d="M71.0799 63.7802C71.0799 67.5502 68.0199 70.6102 64.2499 70.6102C60.4799 70.6102 57.4199 67.5502 57.4199 63.7802C57.4199 60.0102 60.4799 56.9502 64.2499 56.9502C68.0199 56.9502 71.0799 60.0102 71.0799 63.7802Z" fill="#DD451D"/>
<path d="M70.86 39.44C71 38.16 71.08 36.86 71.08 35.54C71.08 34.22 71 32.92 70.86 31.64C54.77 29.21 42.09 16.41 39.82 0.27C38.42 0.1 36.99 0 35.54 0C34.09 0 32.67 0.1 31.26 0.27C28.99 16.41 16.31 29.21 0.220001 31.64C0.0800012 32.92 0 34.22 0 35.54C0 36.86 0.0800012 38.16 0.220001 39.44C16.31 41.87 28.99 54.67 31.26 70.81C32.66 70.98 34.09 71.08 35.54 71.08C36.99 71.08 38.41 70.98 39.82 70.81C42.09 54.67 54.77 41.87 70.86 39.44Z" fill="#6D9335"/>
</svg>
