<svg width="56" height="71" viewBox="0 0 56 71" fill="none" xmlns="http://www.w3.org/2000/svg">
<path d="M55.2109 6.5C55.2109 10.09 52.3009 13 48.7109 13C45.1209 13 42.2109 10.09 42.2109 6.5C42.2109 2.91 45.1209 0 48.7109 0C52.3009 0 55.2109 2.91 55.2109 6.5Z" fill="#FFAB38"/>
<path d="M55.2109 25.7998C55.2109 29.3898 52.3009 32.2998 48.7109 32.2998C45.1209 32.2998 42.2109 29.3898 42.2109 25.7998C42.2109 22.2098 45.1209 19.2998 48.7109 19.2998C52.3009 19.2998 55.2109 22.2098 55.2109 25.7998Z" fill="#FFAB38"/>
<path d="M55.2109 45.1104C55.2109 48.7004 52.3009 51.6104 48.7109 51.6104C45.1209 51.6104 42.2109 48.7004 42.2109 45.1104C42.2109 41.5204 45.1209 38.6104 48.7109 38.6104C52.3009 38.6104 55.2109 41.5204 55.2109 45.1104Z" fill="#FFAB38"/>
<path d="M55.2109 64.4102C55.2109 68.0002 52.3009 70.9102 48.7109 70.9102C45.1209 70.9102 42.2109 68.0002 42.2109 64.4102C42.2109 60.8202 45.1209 57.9102 48.7109 57.9102C52.3009 57.9102 55.2109 60.8202 55.2109 64.4102Z" fill="#FFAB38"/>
<path d="M35.46 0C15.88 0 0 15.88 0 35.46C0 55.04 15.87 70.92 35.46 70.92V0Z" fill="#85A9E3"/>
</svg>
