<svg width="71" height="69" viewBox="0 0 71 69" fill="none" xmlns="http://www.w3.org/2000/svg">
<path d="M64.7591 30.48H39.5391V5.26C39.5391 2.35 41.8991 0 44.7991 0C58.7291 0 70.0191 11.29 70.0191 25.22C70.0191 28.13 67.6591 30.48 64.7591 30.48Z" fill="#DD451D"/>
<path d="M5.26 30.48H30.48V5.26C30.48 2.35 28.12 0 25.22 0C11.29 0 0 11.29 0 25.22C0 28.13 2.36 30.48 5.26 30.48Z" fill="#DD451D"/>
<path d="M5.26 37.5596H30.48V62.7796C30.48 65.6896 28.12 68.0396 25.22 68.0396C11.29 68.0396 0 56.7496 0 42.8196C0 39.9096 2.36 37.5596 5.26 37.5596Z" fill="#DD451D"/>
<path d="M64.7591 37.5596H39.5391V62.7796C39.5391 65.6896 41.8991 68.0396 44.7991 68.0396C58.7291 68.0396 70.0191 56.7496 70.0191 42.8196C70.0191 39.9096 67.6591 37.5596 64.7591 37.5596Z" fill="#DD451D"/>
<path d="M38.6209 34.0897C38.6209 36.0897 37.0009 37.7097 35.0009 37.7097C33.0009 37.7097 31.3809 36.0897 31.3809 34.0897C31.3809 32.0897 33.0009 30.4697 35.0009 30.4697C37.0009 30.4697 38.6209 32.0897 38.6209 34.0897Z" fill="#FFAB38"/>
</svg>
