<svg width="87" height="83" viewBox="0 0 87 83" fill="none" xmlns="http://www.w3.org/2000/svg">
<path d="M85.7088 30.84C84.0188 25.65 78.2788 22.99 73.2188 25.04L50.7488 34.18L52.4588 10.07C52.8488 4.63001 48.5288 0 43.0788 0C37.6288 0 33.3088 4.63001 33.6988 10.07L35.4188 34.34L12.8988 25.34C7.82881 23.32 2.10881 26.01 0.448808 31.21C-1.21119 36.41 1.88881 41.93 7.18881 43.21L30.7588 48.94L15.2688 67.5C11.7688 71.69 12.5588 77.97 16.9888 81.16C21.4188 84.35 27.6188 83.12 30.4888 78.48L43.2488 57.85L56.0888 78.33C58.9888 82.95 65.1988 84.15 69.6088 80.93C74.0188 77.71 74.7688 71.43 71.2488 67.26L55.5888 48.73L79.0388 42.88C84.3388 41.56 87.3988 36.02 85.7088 30.83V30.84Z" fill="#6D9335"/>
</svg>
