<svg width="66" height="86" viewBox="0 0 66 86" fill="none" xmlns="http://www.w3.org/2000/svg">
<path d="M62.2958 12.9C58.2158 11.15 50.9058 18.53 43.9158 30.58C42.4758 12.9 37.9659 0 32.6159 0C27.2659 0 22.7559 12.91 21.3159 30.58C14.3259 18.53 7.01585 11.15 2.93585 12.9C-2.56415 15.26 -0.114146 33.33 8.42585 53.26C16.2759 71.59 26.5358 85.1 32.4158 85.32C32.4558 85.32 32.5058 85.32 32.5458 85.32C32.5658 85.32 32.5959 85.32 32.6159 85.32C32.6359 85.32 32.6658 85.32 32.6858 85.32C32.7258 85.32 32.7759 85.32 32.8159 85.32C38.6959 85.1 48.9459 71.59 56.8059 53.26C65.3459 33.33 67.7958 15.26 62.2958 12.9Z" fill="#FF7F92"/>
</svg>
