<svg width="74" height="74" viewBox="0 0 74 74" fill="none" xmlns="http://www.w3.org/2000/svg">
<path d="M36.65 0C16.41 0 0 16.41 0 36.65C0 56.89 16.41 73.3 36.65 73.3C56.89 73.3 73.3 56.89 73.3 36.65C73.3 16.41 56.89 0 36.65 0ZM36.65 64.25C21.4 64.25 9.04001 51.89 9.04001 36.64C9.04001 21.39 21.4 9.03 36.65 9.03C51.9 9.03 64.26 21.39 64.26 36.64C64.26 51.89 51.9 64.25 36.65 64.25Z" fill="#FFF6EA"/>
<path d="M36.6509 15.7197C24.6209 15.7197 14.8809 25.0897 14.8809 36.6397C14.8809 48.1897 24.6309 57.5597 36.6509 57.5597C48.6709 57.5597 58.4209 48.1897 58.4209 36.6397C58.4209 25.0897 48.6709 15.7197 36.6509 15.7197ZM36.6509 52.3997C27.5909 52.3997 20.2509 45.3397 20.2509 36.6397C20.2509 27.9397 27.5909 20.8797 36.6509 20.8797C45.7109 20.8797 53.0509 27.9397 53.0509 36.6397C53.0509 45.3397 45.7109 52.3997 36.6509 52.3997Z" fill="#FFF6EA"/>
<path d="M36.6505 27.3496C31.3105 27.3496 26.9805 31.5096 26.9805 36.6396C26.9805 41.7696 31.3105 45.9296 36.6505 45.9296C41.9905 45.9296 46.3205 41.7696 46.3205 36.6396C46.3205 31.5096 41.9905 27.3496 36.6505 27.3496Z" fill="#FFF6EA"/>
</svg>
