<svg width="51" height="68" viewBox="0 0 51 68" fill="none" xmlns="http://www.w3.org/2000/svg">
<path d="M44.4464 0H32.8764C32.8764 4.24 29.4364 7.68 25.1964 7.68C20.9564 7.68 17.5164 4.24 17.5164 0H5.94641C2.15641 0 -0.663592 3.49 0.136408 7.2L5.8664 33.77L0.136408 60.34C-0.663592 64.04 2.15641 67.54 5.94641 67.54H17.5164C17.5164 63.3 20.9564 59.86 25.1964 59.86C29.4364 59.86 32.8764 63.3 32.8764 67.54H44.4464C48.2364 67.54 51.0564 64.05 50.2564 60.34L44.5264 33.77L50.2564 7.2C51.0564 3.5 48.2364 0 44.4464 0Z" fill="#6D9335"/>
</svg>
