<svg width="88" height="84" viewBox="0 0 88 84" fill="none" xmlns="http://www.w3.org/2000/svg">
<path d="M86.8624 31.52C85.8324 28.32 83.6524 26.16 71.6924 30.02C62.8124 32.89 51.0524 38.27 45.9924 42.17C48.1424 36.17 49.6524 23.31 49.6524 13.98C49.6524 1.41 46.9224 0 43.5624 0C40.2024 0 37.4724 1.41 37.4724 13.98C37.4724 23.28 38.9724 36.09 41.1124 42.11C36.0624 38.18 24.3824 32.73 15.5524 29.8C3.6224 25.84 1.4324 27.99 0.3724 31.18C-0.6876 34.37 -0.207603 37.41 11.7224 41.36C20.5824 44.3 33.2524 46.92 39.6224 46.76C34.3324 50.33 25.5224 59.8 20.0024 67.32C12.5724 77.45 13.9324 80.2 16.6524 82.19C19.3724 84.18 22.3924 84.66 29.8324 74.52C35.3524 67 41.7424 55.75 43.5524 49.63C45.3224 55.76 51.6224 67.06 57.0824 74.62C64.4424 84.81 67.4724 84.36 70.2024 82.39C72.9324 80.42 74.3124 77.68 66.9624 67.49C61.5024 59.93 52.7624 50.39 47.5024 46.78C53.8824 46.98 66.5724 44.46 75.4424 41.59C87.4024 37.72 87.9024 34.7 86.8624 31.49V31.52Z" fill="#85A9E3"/>
</svg>
