<svg width="87" height="84" viewBox="0 0 87 84" fill="none" xmlns="http://www.w3.org/2000/svg">
<path d="M43.1675 3.80514C50.7875 -3.69486 63.6975 0.505149 65.4475 11.0451C76.0175 9.45515 83.9975 20.4351 79.2175 29.9951C88.7075 34.9251 88.7075 48.4951 79.2175 53.4251C83.9975 62.9851 76.0175 73.9652 65.4475 72.3752C63.6875 82.9152 50.7875 87.1151 43.1675 79.6151C35.5475 87.1151 22.6375 82.9152 20.8875 72.3752C10.3175 73.9652 2.3375 62.9851 7.1175 53.4251C-2.3725 48.4951 -2.3725 34.9251 7.1175 29.9951C2.3375 20.4351 10.3175 9.45515 20.8875 11.0451C22.6475 0.505149 35.5475 -3.69486 43.1675 3.80514Z" fill="#FFF6EA"/>
</svg>
