<svg width="77" height="77" viewBox="0 0 77 77" fill="none" xmlns="http://www.w3.org/2000/svg">
<path d="M52.9693 9.13003C52.4393 10.4 50.9793 11.01 49.7093 10.48C48.4393 9.95004 47.8293 8.49003 48.3593 7.22003C48.8893 5.95003 50.3493 5.34004 51.6193 5.87004C52.8893 6.40004 53.4993 7.86003 52.9693 9.13003Z" fill="#FFF6EA"/>
<path d="M28.1392 69.0704C27.6092 70.3404 26.1492 70.9504 24.8792 70.4204C23.6092 69.8904 22.9992 68.4305 23.5292 67.1605C24.0592 65.8905 25.5192 65.2805 26.7892 65.8105C28.0592 66.3405 28.6692 67.8004 28.1392 69.0704Z" fill="#FFF6EA"/>
<path d="M69.1798 28.0396C67.9098 28.5696 66.4498 27.9596 65.9198 26.6896C65.3898 25.4196 65.9998 23.9596 67.2698 23.4296C68.5398 22.8996 69.9998 23.5096 70.5298 24.7796C71.0598 26.0496 70.4498 27.5096 69.1798 28.0396Z" fill="#FFF6EA"/>
<path d="M9.24039 52.8599C7.97039 53.3899 6.51039 52.7799 5.98039 51.5099C5.45039 50.2399 6.06039 48.7799 7.33039 48.2499C8.60039 47.7199 10.0604 48.3299 10.5904 49.5999C11.1204 50.8699 10.5104 52.3299 9.24039 52.8599Z" fill="#FFF6EA"/>
<path d="M67.2601 52.8697C65.9901 52.3397 65.3801 50.8797 65.9101 49.6097C66.4401 48.3397 67.9001 47.7297 69.1701 48.2597C70.4401 48.7897 71.0501 50.2497 70.5201 51.5197C69.9901 52.7897 68.5301 53.3997 67.2601 52.8697Z" fill="#FFF6EA"/>
<path d="M7.33039 28.0298C6.06039 27.4998 5.45039 26.0398 5.98039 24.7698C6.51039 23.4998 7.97039 22.8898 9.24039 23.4198C10.5104 23.9498 11.1204 25.4098 10.5904 26.6798C10.0604 27.9498 8.60039 28.5598 7.33039 28.0298Z" fill="#FFF6EA"/>
<path d="M48.3612 69.0704C47.8312 67.8004 48.4413 66.3405 49.7113 65.8105C50.9813 65.2805 52.4412 65.8905 52.9712 67.1605C53.5012 68.4305 52.8913 69.8904 51.6213 70.4204C50.3513 70.9504 48.8912 70.3404 48.3612 69.0704Z" fill="#FFF6EA"/>
<path d="M23.5409 9.13003C23.0109 7.86003 23.6209 6.40004 24.8909 5.87004C26.1609 5.34004 27.6209 5.95003 28.1509 7.22003C28.6809 8.49003 28.0709 9.95004 26.8009 10.48C25.5309 11.01 24.0709 10.4 23.5409 9.13003Z" fill="#FFF6EA"/>
<path d="M38.1401 38.04L44.2401 7.43001C45.0101 3.59001 42.0601 0 38.1401 0C34.2201 0 31.2801 3.58001 32.0401 7.43001L38.1401 38.04Z" fill="#85A9E3"/>
<path d="M38.1407 38.25L32.0407 68.86C31.2707 72.7 34.2207 76.29 38.1407 76.29C42.0607 76.29 45.0007 72.71 44.2407 68.86L38.1407 38.25Z" fill="#85A9E3"/>
<path d="M64.1707 20.7396C67.4307 18.5596 67.8807 13.9496 65.1107 11.1796C62.3407 8.40961 57.7207 8.85961 55.5507 12.1196L38.2207 38.0696L64.1707 20.7396Z" fill="#85A9E3"/>
<path d="M12.1206 55.5497C8.86059 57.7297 8.41058 62.3397 11.1806 65.1097C13.9506 67.8797 18.5706 67.4297 20.7406 64.1697L38.0706 38.2197L12.1206 55.5497Z" fill="#85A9E3"/>
<path d="M68.86 32.0499L38.25 38.1499L68.86 44.2499C72.7 45.0199 76.29 42.0699 76.29 38.1499C76.29 34.2299 72.71 31.2899 68.86 32.0499Z" fill="#85A9E3"/>
<path d="M7.43 32.0495C3.59 31.2795 0 34.2295 0 38.1495C0 42.0695 3.58 45.0095 7.43 44.2495L38.04 38.1495L7.43 32.0495Z" fill="#85A9E3"/>
<path d="M64.1707 55.5497L38.2207 38.2197L55.5507 64.1697C57.7307 67.4297 62.3407 67.8797 65.1107 65.1097C67.8807 62.3397 67.4307 57.7197 64.1707 55.5497Z" fill="#85A9E3"/>
<path d="M12.1206 20.7396L38.0706 38.0696L20.7406 12.1196C18.5606 8.85961 13.9506 8.40961 11.1806 11.1796C8.41058 13.9496 8.86059 18.5696 12.1206 20.7396Z" fill="#85A9E3"/>
</svg>
