<svg width="54" height="77" viewBox="0 0 54 77" fill="none" xmlns="http://www.w3.org/2000/svg">
<path d="M27.0109 6.26C28.7395 6.26 30.1409 4.85865 30.1409 3.13C30.1409 1.40135 28.7395 0 27.0109 0C25.2822 0 23.8809 1.40135 23.8809 3.13C23.8809 4.85865 25.2822 6.26 27.0109 6.26Z" fill="#FFF6EA"/>
<path d="M3.13 17.0295C4.85866 17.0295 6.26001 15.6282 6.26001 13.8995C6.26001 12.1709 4.85866 10.7695 3.13 10.7695C1.40135 10.7695 0 12.1709 0 13.8995C0 15.6282 1.40135 17.0295 3.13 17.0295Z" fill="#FFF6EA"/>
<path d="M53.0491 15.5802C53.0491 17.3102 51.6491 18.7102 49.9191 18.7102C48.1891 18.7102 46.7891 17.3102 46.7891 15.5802C46.7891 13.8502 48.1891 12.4502 49.9191 12.4502C51.6491 12.4502 53.0491 13.8502 53.0491 15.5802Z" fill="#FFF6EA"/>
<path d="M26.9308 10.8604L11.7808 55.5704C8.27078 65.9404 15.9808 76.7003 26.9308 76.7003C37.8808 76.7003 45.5908 65.9404 42.0808 55.5704L26.9308 10.8604Z" fill="#FFAB38"/>
<path d="M5.99046 19.9199L10.9305 62.3599C12.0805 72.2099 22.5605 78.0099 31.5105 73.7699C40.4705 69.5199 42.6005 57.7399 35.7105 50.6099L5.98047 19.9199H5.99046Z" fill="#FFAB38"/>
<path d="M47.8709 19.9199L42.9309 62.3599C41.7809 72.2099 31.3009 78.0099 22.3509 73.7699C13.3909 69.5199 11.2609 57.7399 18.1509 50.6099L47.8809 19.9199H47.8709Z" fill="#FFAB38"/>
</svg>
