<svg width="97" height="71" viewBox="0 0 97 71" fill="none" xmlns="http://www.w3.org/2000/svg">
<path d="M66.2378 12.6275L57.3078 3.6975C52.3778 -1.2325 44.3778 -1.2325 39.4378 3.6975L30.5078 12.6275L48.3778 30.4975L66.2478 12.6275H66.2378Z" fill="#FFF6EA"/>
<path d="M93.0375 18.1877C88.1075 13.2577 80.1075 13.2577 75.1675 18.1877L66.2375 27.1177L48.3675 44.9877L30.4975 27.1177L21.5675 18.1877C16.6375 13.2577 8.6375 13.2577 3.6975 18.1877C-1.2325 23.1177 -1.2325 31.1177 3.6975 36.0577L12.6275 44.9877L30.4975 62.8577C40.3675 72.7277 56.3675 72.7277 66.2275 62.8577L84.0975 44.9877L93.0275 36.0577C97.9575 31.1277 97.9575 23.1277 93.0275 18.1877H93.0375Z" fill="#FFF6EA"/>
</svg>
