<svg width="65" height="65" viewBox="0 0 65 65" fill="none" xmlns="http://www.w3.org/2000/svg">
<path d="M64.09 26.24C63.24 21.52 61.38 17.15 58.72 13.37C50.38 20.47 40.85 26.86 39.02 25.03C37.19 23.2 43.58 13.68 50.67 5.34C46.88 2.69 42.49 0.83 37.75 0C36.87 10.94 34.66 22.25 32.06 22.25C29.46 22.25 27.25 10.94 26.37 0C21.61 0.84 17.21 2.71 13.41 5.38C20.55 13.75 27.01 23.36 25.17 25.2C23.33 27.04 13.73 20.58 5.36002 13.44C2.69002 17.26 0.83 21.68 0 26.45C10.98 27.32 22.38 29.54 22.38 32.15C22.38 34.76 11.01 36.98 0.0400085 37.85C0.900009 42.62 2.79002 47.02 5.49002 50.82C13.86 43.68 23.49 37.2 25.33 39.04C27.17 40.88 20.72 50.47 13.59 58.83C17.41 61.47 21.82 63.31 26.59 64.11C27.46 53.16 29.68 41.82 32.28 41.82C34.88 41.82 37.09 53.1 37.97 64.03C42.7 63.16 47.07 61.27 50.85 58.59C43.75 50.24 37.34 40.7 39.17 38.87C41 37.04 50.51 43.42 58.84 50.51C61.46 46.71 63.3 42.33 64.11 37.6C53.2 36.72 41.95 34.51 41.95 31.92C41.95 29.33 53.17 27.12 64.07 26.24H64.09Z" fill="#6D9335"/>
</svg>
