<svg width="79" height="79" viewBox="0 0 79 79" fill="none" xmlns="http://www.w3.org/2000/svg">
<path d="M74.16 34.6L57.25 33.79C56.9 32.67 56.45 31.6 55.91 30.59L67.3 18.05C69 16.18 68.93 13.31 67.14 11.52C65.35 9.73 62.48 9.67 60.61 11.36L48.07 22.75C47.05 22.21 45.98 21.76 44.87 21.41L44.06 4.5C43.94 1.98 41.86 0 39.33 0C36.8 0 34.72 1.98 34.6 4.5L33.79 21.41C32.67 21.76 31.6 22.21 30.59 22.75L18.05 11.36C16.18 9.66 13.31 9.73 11.52 11.52C9.72999 13.31 9.66999 16.18 11.36 18.05L22.75 30.59C22.21 31.61 21.76 32.68 21.41 33.79L4.5 34.6C1.98 34.72 0 36.8 0 39.33C0 41.86 1.98 43.94 4.5 44.06L21.41 44.87C21.76 45.99 22.21 47.06 22.75 48.07L11.36 60.61C9.65999 62.48 9.72999 65.35 11.52 67.14C13.31 68.93 16.18 68.99 18.05 67.3L30.59 55.91C31.61 56.45 32.68 56.9 33.79 57.25L34.6 74.16C34.72 76.68 36.8 78.67 39.33 78.67C41.86 78.67 43.94 76.69 44.06 74.16L44.87 57.25C45.99 56.9 47.06 56.45 48.07 55.91L60.61 67.3C62.48 69 65.35 68.93 67.14 67.14C68.93 65.35 68.99 62.48 67.3 60.61L55.91 48.07C56.45 47.05 56.9 45.98 57.25 44.87L74.16 44.06C76.68 43.94 78.66 41.86 78.66 39.33C78.66 36.8 76.68 34.72 74.16 34.6Z" fill="#85A9E3"/>
</svg>
