<svg width="89" height="89" viewBox="0 0 89 89" fill="none" xmlns="http://www.w3.org/2000/svg">
<path d="M88.2 44.1C88.2 39.83 84.64 36.42 80.37 36.6L70.51 37.02L79.26 32.46C83.05 30.49 84.42 25.75 82.29 22.05C80.15 18.35 75.37 17.18 71.76 19.47L63.43 24.77L68.73 16.44C71.02 12.84 69.85 8.05 66.15 5.91C62.45 3.77 57.72 5.15 55.74 8.94L51.18 17.69L51.6 7.83C51.78 3.56 48.37 0 44.1 0C39.83 0 36.42 3.56 36.6 7.83L37.02 17.69L32.46 8.94C30.49 5.15 25.75 3.78 22.05 5.91C18.35 8.05 17.18 12.83 19.47 16.44L24.77 24.77L16.44 19.47C12.84 17.18 8.05 18.35 5.91 22.05C3.77 25.75 5.15 30.48 8.94 32.46L17.69 37.02L7.83 36.6C3.56 36.42 0 39.83 0 44.1C0 48.37 3.56 51.78 7.83 51.6L17.69 51.18L8.94 55.74C5.15 57.71 3.78 62.45 5.91 66.15C8.05 69.85 12.83 71.02 16.44 68.73L24.77 63.43L19.47 71.76C17.18 75.36 18.35 80.15 22.05 82.29C25.75 84.43 30.48 83.05 32.46 79.26L37.02 70.51L36.6 80.37C36.42 84.64 39.83 88.2 44.1 88.2C48.37 88.2 51.78 84.64 51.6 80.37L51.18 70.51L55.74 79.26C57.71 83.05 62.45 84.42 66.15 82.29C69.85 80.15 71.02 75.37 68.73 71.76L63.43 63.43L71.76 68.73C75.36 71.02 80.15 69.85 82.29 66.15C84.43 62.45 83.05 57.72 79.26 55.74L70.51 51.18L80.37 51.6C84.64 51.78 88.2 48.37 88.2 44.1Z" fill="#6D9335"/>
</svg>
