<svg width="76" height="76" viewBox="0 0 76 76" fill="none" xmlns="http://www.w3.org/2000/svg">
<path d="M67.63 52.07L55.36 44.98C55.92 43.59 56.31 42.11 56.53 40.58H75.94C75.94 37.69 73.6 35.35 70.71 35.35H56.52C56.31 33.82 55.92 32.34 55.35 30.95L72.15 21.25C70.71 18.75 67.51 17.89 65.01 19.34L52.73 26.43C51.79 25.23 50.71 24.15 49.51 23.21L59.21 6.39999C56.71 4.95999 53.51 5.81 52.07 8.31L44.98 20.58C43.59 20.02 42.11 19.63 40.58 19.41V0C37.69 0 35.35 2.34 35.35 5.23V19.42C33.82 19.63 32.34 20.02 30.95 20.59L21.25 3.78999C18.75 5.22999 17.89 8.42999 19.34 10.93L26.43 23.21C25.23 24.15 24.15 25.23 23.21 26.43L6.4 16.73C4.96 19.23 5.81 22.43 8.31 23.87L20.58 30.96C20.02 32.35 19.63 33.83 19.41 35.36H0C0 38.25 2.34 40.59 5.23 40.59H19.42C19.63 42.12 20.02 43.6 20.59 44.99L3.79 54.69C5.23 57.19 8.43 58.05 10.93 56.6L23.21 49.51C24.15 50.71 25.23 51.79 26.43 52.73L16.73 69.54C19.23 70.98 22.43 70.13 23.87 67.63L30.96 55.36C32.35 55.92 33.83 56.31 35.36 56.53V75.94C38.25 75.94 40.59 73.6 40.59 70.71V56.53C42.12 56.32 43.6 55.93 44.99 55.36L54.69 72.16C57.19 70.72 58.05 67.52 56.6 65.02L49.51 52.74C50.71 51.8 51.79 50.72 52.73 49.52L69.54 59.22C70.98 56.72 70.13 53.52 67.63 52.08V52.07Z" fill="#DD451D"/>
</svg>
