<svg width="53" height="94" viewBox="0 0 53 94" fill="none" xmlns="http://www.w3.org/2000/svg">
<path d="M52.66 18.99C52.66 15.83 50.27 12.95 46.33 10.72C50.27 9.58 52.66 8.11 52.66 6.5C52.66 2.91 40.87 0 26.33 0C11.79 0 0 2.91 0 6.5C0 8.11 2.39002 9.59 6.33002 10.72C2.39002 12.94 0 15.83 0 18.99C0 21.73 1.80001 24.27 4.85001 26.34C1.80001 29.64 0 33.68 0 38.04C0 42.93 2.25001 47.41 6.01001 50.91C2.26001 55.46 0 61.29 0 67.65C0 82.19 11.79 93.98 26.33 93.98C40.87 93.98 52.66 82.19 52.66 67.65C52.66 61.29 50.41 55.46 46.65 50.91C50.4 47.41 52.66 42.93 52.66 38.04C52.66 33.68 50.86 29.65 47.81 26.34C50.86 24.26 52.66 21.73 52.66 18.99Z" fill="#FF7F92"/>
</svg>
