<svg width="63" height="57" viewBox="0 0 63 57" fill="none" xmlns="http://www.w3.org/2000/svg">
<path d="M31.065 8.88C33.5171 8.88 35.505 6.89215 35.505 4.44C35.505 1.98786 33.5171 0 31.065 0C28.6129 0 26.625 1.98786 26.625 4.44C26.625 6.89215 28.6129 8.88 31.065 8.88Z" fill="#FFF6EA"/>
<path d="M49.8457 7.60983C44.3457 7.86983 39.1257 10.1798 35.2057 14.0898L31.0657 18.2298L26.9257 14.0898C22.7657 9.92984 17.1157 7.58984 11.2257 7.58984C4.56567 7.58984 -0.74431 13.3898 0.08569 20.2098C0.36569 22.5698 1.46569 24.7499 3.05569 26.5099L29.1457 55.4898C30.1757 56.6398 31.9757 56.6398 33.0057 55.4898L59.2657 26.3199C61.3057 24.0499 62.3457 21.0498 62.1157 17.9798C61.6557 11.7798 56.0657 7.30983 49.8557 7.60983H49.8457Z" fill="#DD451D"/>
</svg>
