<svg width="77" height="75" viewBox="0 0 77 75" fill="none" xmlns="http://www.w3.org/2000/svg">
<path d="M75.723 27.26C73.403 20.02 68.783 15.03 58.453 18.34C56.053 19.11 53.553 20.27 51.163 21.67C51.773 18.96 52.113 16.23 52.113 13.71C52.113 2.87 45.953 0 38.343 0C30.733 0 24.573 2.87 24.573 13.71C24.573 16.09 24.873 18.65 25.413 21.2C23.173 19.86 20.843 18.76 18.593 17.99C8.33296 14.5 3.62296 19.41 1.17296 26.61C-1.27704 33.81 -0.53704 40.57 9.72296 44.06C12.113 44.87 14.803 45.43 17.563 45.73C15.463 47.54 13.563 49.53 12.063 51.56C5.60296 60.26 8.84295 66.24 14.943 70.78C21.053 75.31 27.713 76.68 34.173 67.98C35.673 65.95 37.033 63.56 38.163 61.03C39.243 63.58 40.563 66 42.033 68.05C48.343 76.86 55.033 75.61 61.213 71.18C67.393 66.75 70.733 60.83 64.423 52.01C62.953 49.96 61.093 47.94 59.023 46.09C61.783 45.84 64.493 45.33 66.893 44.56C77.213 41.25 78.063 34.5 75.743 27.26H75.723Z" fill="#FFF6EA"/>
</svg>
