<svg width="77" height="63" viewBox="0 0 77 63" fill="none" xmlns="http://www.w3.org/2000/svg">
<path d="M75.2337 25.93C77.1937 23.8 75.7237 20.36 72.8237 20.36H50.2837C60.0137 17.94 68.6437 12.71 75.2337 5.56999C77.1937 3.43999 75.7237 0 72.8237 0H3.30369C0.403688 0 -1.06631 3.43999 0.893688 5.56999C7.48369 12.71 16.1037 17.94 25.8437 20.36H3.30369C0.403688 20.36 -1.06631 23.8 0.893688 25.93C7.48369 33.07 16.1037 38.3 25.8437 40.72H3.30369C0.403688 40.72 -1.06631 44.16 0.893688 46.29C10.1337 56.31 23.3637 62.59 38.0637 62.59C52.7637 62.59 65.9937 56.31 75.2337 46.29C77.1937 44.16 75.7237 40.72 72.8237 40.72H50.2837C60.0137 38.3 68.6437 33.07 75.2337 25.93Z" fill="#FFF6EA"/>
</svg>
