<svg width="89" height="89" viewBox="0 0 89 89" fill="none" xmlns="http://www.w3.org/2000/svg">
<path d="M88.48 44.24C77.21 38.9 59.49 38.5 47.22 43.01C59.09 37.53 71.33 24.7 75.52 12.96C63.77 17.15 50.95 29.39 45.47 41.26C49.99 28.99 49.58 11.27 44.24 0C38.9 11.27 38.5 28.99 43.01 41.26C37.53 29.39 24.7 17.15 12.96 12.96C17.15 24.71 29.39 37.53 41.26 43.01C28.99 38.49 11.27 38.9 0 44.24C11.27 49.58 28.99 49.98 41.26 45.47C29.39 50.95 17.15 63.78 12.96 75.52C24.71 71.33 37.53 59.09 43.01 47.22C38.49 59.49 38.9 77.21 44.24 88.48C49.58 77.21 49.98 59.49 45.47 47.22C50.95 59.09 63.78 71.33 75.52 75.52C71.33 63.77 59.09 50.95 47.22 45.47C59.49 49.99 77.21 49.58 88.48 44.24Z" fill="#DD451D"/>
</svg>
