<svg width="66" height="61" viewBox="0 0 66 61" fill="none" xmlns="http://www.w3.org/2000/svg">
<path d="M23.1691 4.44C23.1691 6.89 21.1791 8.87997 18.7291 8.87997C16.2791 8.87997 14.2891 6.89 14.2891 4.44C14.2891 1.99 16.2791 0 18.7291 0C21.1791 0 23.1691 1.99 23.1691 4.44Z" fill="#FFF6EA"/>
<path d="M51.6593 4.44C51.6593 6.89 49.6693 8.87997 47.2193 8.87997C44.7693 8.87997 42.7793 6.89 42.7793 4.44C42.7793 1.99 44.7693 0 47.2193 0C49.6693 0 51.6593 1.99 51.6593 4.44Z" fill="#FFF6EA"/>
<path d="M54.17 13.7802C50.73 16.6802 47.94 20.0002 45.93 23.6302C43.88 16.3802 39.34 9.8102 32.98 4.4502C26.62 9.8102 22.08 16.3802 20.03 23.6302C18.02 20.0002 15.22 16.6802 11.79 13.7802C4.45001 19.9602 0 28.0802 0 36.9702C0 45.8602 4.46001 53.9802 11.79 60.1602H54.17C61.51 53.9802 65.96 45.8602 65.96 36.9702C65.96 28.0802 61.5 19.9602 54.17 13.7802Z" fill="#85A9E3"/>
</svg>
