<svg width="74" height="73" viewBox="0 0 74 73" fill="none" xmlns="http://www.w3.org/2000/svg">
<path d="M73.86 27.69L62.84 8.59998C56.23 12.42 50.46 16.58 46.01 20.56C47.23 14.72 47.95 7.64 47.95 0H25.91C25.91 7.63 26.63 14.71 27.85 20.56C23.4 16.58 17.63 12.42 11.02 8.59998L0 27.69C6.61 31.51 13.1 34.42 18.77 36.29C13.1 38.15 6.61 41.07 0 44.89L11.02 63.98C17.63 60.16 23.4 56 27.85 52.02C26.63 57.86 25.91 64.94 25.91 72.58H47.95C47.95 64.95 47.23 57.87 46.01 52.02C50.46 56 56.23 60.16 62.84 63.98L73.86 44.89C67.25 41.07 60.76 38.16 55.09 36.29C60.76 34.43 67.25 31.51 73.86 27.69Z" fill="#85A9E3"/>
</svg>
