<svg width="66" height="70" viewBox="0 0 66 70" fill="none" xmlns="http://www.w3.org/2000/svg">
<path d="M41.6308 14.9901C45.4029 14.9901 48.4608 11.9322 48.4608 8.16008C48.4608 4.38797 45.4029 1.33008 41.6308 1.33008C37.8587 1.33008 34.8008 4.38797 34.8008 8.16008C34.8008 11.9322 37.8587 14.9901 41.6308 14.9901Z" fill="#FFAB38"/>
<path d="M36.06 69.39C16.15 69.39 0 53.25 0 33.33V0C19.91 0 36.06 16.14 36.06 36.06V69.39Z" fill="#85A9E3"/>
<path d="M36.0605 69.3896C52.0605 69.3896 65.0305 56.4196 65.0305 40.4196V13.6396C49.0305 13.6396 36.0605 26.6096 36.0605 42.6096V69.3896Z" fill="#85A9E3"/>
</svg>
