<svg width="85" height="83" viewBox="0 0 85 83" fill="none" xmlns="http://www.w3.org/2000/svg">
<path d="M83.3912 29.99C80.4312 20.82 71.9312 14.99 62.7912 14.99C59.9812 6.29002 51.8212 0 42.1912 0C32.5612 0 24.5112 6.21001 21.6512 14.82C12.5812 14.82 4.13118 20.56 1.11118 29.64C-1.92882 38.78 1.47116 48.52 8.84116 53.93C5.95116 62.6 8.80116 72.5 16.5612 78.21C24.3212 83.91 34.6212 83.67 42.0412 78.32C49.4112 83.74 59.7112 84.07 67.5312 78.43C75.3412 72.79 78.2812 62.92 75.4712 54.22C82.8812 48.87 86.3712 39.17 83.4112 30.01L83.3912 29.99Z" fill="#FFF6EA"/>
</svg>
