<svg width="70" height="79" viewBox="0 0 70 79" fill="none" xmlns="http://www.w3.org/2000/svg">
<path d="M53.9073 39.47C62.6073 33.71 71.2773 24 68.8073 19.73C66.3473 15.46 53.5973 18.12 44.2573 22.77C43.6173 12.36 39.5473 0 34.6173 0C29.6873 0 25.6173 12.36 24.9773 22.77C15.6373 18.12 2.8973 15.46 0.427295 19.73C-2.0327 24 6.6373 33.71 15.3273 39.47C6.6273 45.23 -2.0427 54.94 0.427295 59.21C2.8873 63.48 15.6373 60.82 24.9773 56.17C25.6173 66.58 29.6873 78.94 34.6173 78.94C39.5473 78.94 43.6173 66.58 44.2573 56.17C53.5973 60.82 66.3373 63.48 68.8073 59.21C71.2673 54.94 62.5973 45.23 53.9073 39.47Z" fill="#FF7F92"/>
</svg>
