<svg width="57" height="68" viewBox="0 0 57 68" fill="none" xmlns="http://www.w3.org/2000/svg">
<path d="M54.41 30.29C52.55 43.18 41.45 53.09 28.05 53.09C14.65 53.09 3.55 43.18 1.69 30.29C0.590002 33.29 0 36.53 0 39.91C0 55.41 12.56 67.97 28.06 67.97C43.56 67.97 56.12 55.41 56.12 39.91C56.12 36.53 55.52 33.29 54.43 30.29H54.41Z" fill="#FFAB38"/>
<path d="M46.2292 12.9199C44.9392 21.8099 37.2992 28.6399 28.0492 28.6399C18.7992 28.6399 11.1592 21.8099 9.86922 12.9199C9.10922 14.9899 8.69922 17.2199 8.69922 19.5599C8.69922 30.2499 17.3592 38.9099 28.0492 38.9099C38.7392 38.9099 47.3992 30.2499 47.3992 19.5599C47.3992 17.2299 46.9892 14.9899 46.2292 12.9199Z" fill="#DD451D"/>
<path d="M28.0491 15.36C32.2907 15.36 35.7291 11.9215 35.7291 7.68C35.7291 3.43845 32.2907 0 28.0491 0C23.8076 0 20.3691 3.43845 20.3691 7.68C20.3691 11.9215 23.8076 15.36 28.0491 15.36Z" fill="#FFF6EA"/>
</svg>
