<svg width="76" height="77" viewBox="0 0 76 77" fill="none" xmlns="http://www.w3.org/2000/svg">
<path d="M63.764 38.42C70.494 36.24 76.024 33.59 75.694 31.75C75.374 29.91 69.274 29.31 62.194 29.56C67.774 25.21 72.064 20.83 71.124 19.21C70.194 17.59 64.254 19.11 57.694 21.77C61.454 15.77 63.974 10.19 62.544 8.98999C61.114 7.78999 56.0541 11.25 50.8041 15.99C52.2841 9.06999 52.754 2.95998 50.994 2.31998C49.234 1.67998 45.674 6.66 42.354 12.91C41.374 5.9 39.724 0 37.854 0C35.984 0 34.334 5.9 33.354 12.91C30.034 6.66 26.464 1.67998 24.714 2.31998C22.954 2.95998 23.424 9.06999 24.904 15.99C19.644 11.25 14.594 7.78999 13.164 8.98999C11.734 10.19 14.264 15.77 18.014 21.77C11.454 19.11 5.51404 17.59 4.58404 19.21C3.65404 20.83 7.93404 25.21 13.514 29.56C6.43404 29.31 0.344044 29.91 0.0140435 31.75C-0.305956 33.59 5.21404 36.24 11.944 38.42C5.21404 40.6 -0.315956 43.25 0.0140435 45.09C0.334044 46.93 6.43404 47.53 13.514 47.28C7.93404 51.63 3.64404 56.01 4.58404 57.63C5.51404 59.25 11.454 57.73 18.014 55.07C14.254 61.07 11.734 66.65 13.164 67.85C14.594 69.05 19.654 65.59 24.904 60.85C23.424 67.77 22.954 73.88 24.714 74.52C26.474 75.16 30.034 70.18 33.354 63.93C34.334 70.94 35.984 76.84 37.854 76.84C39.724 76.84 41.374 70.94 42.354 63.93C45.674 70.18 49.244 75.16 50.994 74.52C52.754 73.88 52.2841 67.77 50.8041 60.85C56.0641 65.59 61.114 69.05 62.544 67.85C63.974 66.65 61.444 61.07 57.694 55.07C64.254 57.73 70.194 59.25 71.124 57.63C72.054 56.01 67.774 51.63 62.194 47.28C69.274 47.53 75.364 46.93 75.694 45.09C76.014 43.25 70.494 40.6 63.764 38.42Z" fill="#FF7F92"/>
</svg>
