<svg width="77" height="94" viewBox="0 0 77 94" fill="none" xmlns="http://www.w3.org/2000/svg">
<path d="M72.305 37.2409L58.915 23.8509C57.735 22.6709 57.075 21.0709 57.075 19.4109C57.075 9.13091 49.085 0.350905 38.805 0.0109047C28.065 -0.349095 19.235 8.2509 19.235 18.9209V19.4209C19.235 21.0909 18.575 22.6809 17.395 23.8609L4.005 37.2509C-1.335 42.5909 -1.335 51.2609 4.005 56.6009L17.395 69.9909C18.575 71.1709 19.235 72.7709 19.235 74.4309C19.235 84.7109 27.225 93.4909 37.505 93.8309C48.245 94.1909 57.075 85.5909 57.075 74.9209V74.4209C57.075 72.7509 57.735 71.1609 58.915 69.9809L72.305 56.5909C77.645 51.2509 77.645 42.5809 72.305 37.2409ZM55.435 51.3309L44.265 62.5009C40.885 65.8809 35.415 65.8809 32.035 62.5009L20.865 51.3309C17.485 47.9509 17.485 42.4809 20.865 39.1009L32.035 27.9309C35.415 24.5509 40.885 24.5509 44.265 27.9309L55.435 39.1009C58.815 42.4809 58.815 47.9509 55.435 51.3309Z" fill="#6D9335"/>
</svg>
