<svg width="82" height="82" viewBox="0 0 82 82" fill="none" xmlns="http://www.w3.org/2000/svg">
<path d="M75.2222 40.7122L81.1022 23.3922C82.4222 19.4922 79.5222 15.4422 75.4022 15.4422H65.9822V6.02222C65.9822 1.90223 61.9322 -0.997776 58.0322 0.322224L40.7122 6.20222L23.3922 0.322224C19.4922 -0.997776 15.4422 1.90223 15.4422 6.02222V15.4422H6.02224C1.90224 15.4422 -0.997776 19.4922 0.322224 23.3922L6.20223 40.7122L0.322224 58.0322C-0.997776 61.9322 1.90224 65.9822 6.02224 65.9822H15.4422V75.4022C15.4422 79.5222 19.4922 82.4222 23.3922 81.1022L40.7122 75.2222L58.0322 81.1022C61.9322 82.4222 65.9822 79.5222 65.9822 75.4022V65.9822H75.4022C79.5222 65.9822 82.4222 61.9322 81.1022 58.0322L75.2222 40.7122Z" fill="#FFF6EA"/>
</svg>
