<svg width="61" height="70" viewBox="0 0 61 70" fill="none" xmlns="http://www.w3.org/2000/svg">
<path d="M20.2305 3.25C20.2305 5.04 18.7805 6.5 16.9805 6.5C15.1805 6.5 13.7305 5.05 13.7305 3.25C13.7305 1.45 15.1805 0 16.9805 0C18.7805 0 20.2305 1.45 20.2305 3.25Z" fill="#FFAB38"/>
<path d="M30.4297 6.5C32.2246 6.5 33.6797 5.04493 33.6797 3.25C33.6797 1.45507 32.2246 0 30.4297 0C28.6348 0 27.1797 1.45507 27.1797 3.25C27.1797 5.04493 28.6348 6.5 30.4297 6.5Z" fill="#FFAB38"/>
<path d="M47.1191 3.25C47.1191 5.04 45.6691 6.5 43.8691 6.5C42.0691 6.5 40.6191 5.05 40.6191 3.25C40.6191 1.45 42.0691 0 43.8691 0C45.6691 0 47.1191 1.45 47.1191 3.25Z" fill="#FFAB38"/>
<path d="M50.71 3.61035L43.95 47.3004L37.19 3.61035L30.43 47.3004L23.67 3.61035L16.91 47.3004L10.15 3.61035L0 69.1604H13.53H20.29H27.05H33.81H40.57H47.33H60.86L50.71 3.61035Z" fill="#6D9335"/>
</svg>
