<svg width="60" height="77" viewBox="0 0 60 77" fill="none" xmlns="http://www.w3.org/2000/svg">
<path d="M59.52 38.35C59.52 34.45 55.64 30.95 49.49 28.56C46.87 27.54 46.87 23.89 49.49 22.87C55.64 20.47 59.52 16.98 59.52 13.08C59.52 5.86 46.2 0 29.76 0C13.32 0 0 5.85 0 13.08C0 16.98 3.88 20.47 10.03 22.87C12.65 23.89 12.65 27.54 10.03 28.56C3.88 30.96 0 34.45 0 38.35C0 42.25 3.88 45.75 10.03 48.14C12.65 49.16 12.65 52.81 10.03 53.83C3.88 56.23 0 59.72 0 63.62C0 70.84 13.32 76.7 29.76 76.7C46.2 76.7 59.52 70.84 59.52 63.62C59.52 59.72 55.64 56.22 49.49 53.83C46.87 52.81 46.87 49.16 49.49 48.14C55.64 45.74 59.52 42.25 59.52 38.35Z" fill="#85A9E3"/>
</svg>
