<svg width="88" height="83" viewBox="0 0 88 83" fill="none" xmlns="http://www.w3.org/2000/svg">
<path d="M43.7999 66.46C57.5849 66.46 68.7599 55.2851 68.7599 41.5C68.7599 27.715 57.5849 16.54 43.7999 16.54C30.0148 16.54 18.8398 27.715 18.8398 41.5C18.8398 55.2851 30.0148 66.46 43.7999 66.46Z" fill="#DD451D"/>
<path d="M43.7992 10.86C46.7981 10.86 49.2292 8.42891 49.2292 5.43C49.2292 2.43109 46.7981 0 43.7992 0C40.8003 0 38.3691 2.43109 38.3691 5.43C38.3691 8.42891 40.8003 10.86 43.7992 10.86Z" fill="#FFF6EA"/>
<path d="M43.8 52.95L29.06 38.21H0L43.8 82.02L87.61 38.21H58.54L43.8 52.95Z" fill="#6D9335"/>
</svg>
