<svg width="78" height="78" viewBox="0 0 78 78" fill="none" xmlns="http://www.w3.org/2000/svg">
<path d="M41.1285 8.58812C39.1485 10.5081 35.9785 10.4581 34.0585 8.47812C32.1385 6.49812 32.1885 3.32811 34.1685 1.40812C36.1485 -0.511885 39.3185 -0.461884 41.2385 1.51812C43.1585 3.49812 43.1085 6.66812 41.1285 8.58812Z" fill="#DD451D"/>
<path d="M75.859 44.4485C73.879 46.3685 70.709 46.3185 68.789 44.3385C66.869 42.3585 66.919 39.1885 68.899 37.2685C70.879 35.3485 74.049 35.3985 75.969 37.3785C77.889 39.3585 77.839 42.5285 75.859 44.4485Z" fill="#DD451D"/>
<path d="M8.4781 40.218C6.4981 42.138 3.32812 42.088 1.40812 40.108C-0.511878 38.128 -0.461892 34.958 1.51811 33.038C3.49811 31.118 6.66811 31.168 8.58811 33.148C10.5081 35.128 10.4581 38.298 8.4781 40.218Z" fill="#DD451D"/>
<path d="M43.2086 76.0676C41.2286 77.9876 38.0586 77.9376 36.1386 75.9576C34.2186 73.9776 34.2686 70.8076 36.2486 68.8876C38.2286 66.9676 41.3986 67.0176 43.3186 68.9976C45.2386 70.9776 45.1886 74.1476 43.2086 76.0676Z" fill="#DD451D"/>
<path d="M38.3983 52.8781L57.7683 62.3581C60.4283 63.6581 63.2384 60.8781 61.9684 58.1981L52.8283 39.0281L62.3084 19.6581C63.6084 16.9981 60.8283 14.1881 58.1483 15.4581L38.9783 24.5981L19.6083 15.1181C16.9483 13.8181 14.1384 16.5981 15.4084 19.2781L24.5483 38.4481L15.0683 57.8181C13.7683 60.4781 16.5483 63.2881 19.2283 62.0181L38.3983 52.8781Z" fill="#FFAB38"/>
</svg>
