<svg width="77" height="74" viewBox="0 0 77 74" fill="none" xmlns="http://www.w3.org/2000/svg">
<path d="M76.14 29.76C76.14 27.29 74.8 24.95 72.41 22.86C74.8 20.77 76.14 18.43 76.14 15.96C76.14 7.14999 59.1 0 38.07 0C17.04 0 0 7.14999 0 15.96C0 18.43 1.34 20.77 3.73 22.86C1.34 24.95 0 27.29 0 29.76C0 32.23 1.34 34.57 3.73 36.66C1.34 38.75 0 41.09 0 43.56C0 46.03 1.34 48.37 3.73 50.46C1.34 52.55 0 54.89 0 57.36C0 66.18 17.04 73.32 38.07 73.32C59.1 73.32 76.14 66.17 76.14 57.36C76.14 54.89 74.8 52.55 72.41 50.46C74.8 48.37 76.14 46.03 76.14 43.56C76.14 41.09 74.8 38.75 72.41 36.66C74.8 34.57 76.14 32.23 76.14 29.76ZM8.63 15.96C8.63 11.08 21.81 7.12 38.07 7.12C54.33 7.12 67.51 11.08 67.51 15.96C67.51 16.98 66.93 17.96 65.87 18.87C58.92 15.76 49.04 13.81 38.07 13.81C27.1 13.81 17.21 15.76 10.27 18.87C9.21 17.96 8.63 16.98 8.63 15.96ZM56.47 50.47C51.43 51.68 45.04 52.41 38.07 52.41C31.1 52.41 24.71 51.68 19.67 50.47C24.71 49.26 31.1 48.53 38.07 48.53C45.04 48.53 51.43 49.26 56.47 50.47ZM19.68 36.66C24.72 35.45 31.11 34.72 38.08 34.72C45.05 34.72 51.44 35.45 56.48 36.66C51.44 37.87 45.05 38.6 38.08 38.6C31.11 38.6 24.72 37.87 19.68 36.66ZM19.68 22.86C24.72 21.65 31.11 20.92 38.08 20.92C45.05 20.92 51.44 21.65 56.48 22.86C51.44 24.07 45.05 24.8 38.08 24.8C31.11 24.8 24.72 24.07 19.68 22.86ZM8.63 29.76C8.63 28.74 9.21 27.76 10.27 26.85C12.81 27.99 15.74 28.97 18.97 29.76C15.74 30.55 12.81 31.53 10.27 32.67C9.21 31.76 8.63 30.78 8.63 29.76ZM8.63 43.57C8.63 42.55 9.21 41.57 10.27 40.66C12.81 41.8 15.74 42.78 18.97 43.57C15.74 44.36 12.81 45.34 10.27 46.48C9.21 45.57 8.63 44.59 8.63 43.57ZM67.51 57.37C67.51 62.25 54.33 66.21 38.07 66.21C21.81 66.21 8.63 62.25 8.63 57.37C8.63 56.35 9.21 55.37 10.27 54.46C17.22 57.57 27.1 59.52 38.07 59.52C49.04 59.52 58.93 57.57 65.87 54.46C66.93 55.37 67.51 56.35 67.51 57.37ZM67.51 43.57C67.51 44.59 66.93 45.57 65.87 46.48C63.33 45.34 60.4 44.36 57.17 43.57C60.4 42.78 63.33 41.8 65.87 40.66C66.93 41.57 67.51 42.55 67.51 43.57ZM57.17 29.76C60.4 28.97 63.33 27.99 65.87 26.85C66.93 27.76 67.51 28.74 67.51 29.76C67.51 30.78 66.93 31.76 65.87 32.67C63.33 31.53 60.4 30.55 57.17 29.76Z" fill="#FFAB38"/>
</svg>
