<svg xmlns="http://www.w3.org/2000/svg" viewBox="0 0 64 64"><path fill="#111" d="M0 0H64V64H0Z"/><path fill="#fff" transform="translate(-101.12263759628931 8.7847400535784) scale(0.05337823035597719)" d="M2485.04 269.003C2540.31 269.003 2586.93 281.042 2624.84 305.121C2662.75 329.2 2690.81 360.991 2708.97 400.493C2727.13 439.995 2736.23 482.635 2736.23 528.455C2736.23 559.249 2732.1 588.451 2723.8 616.111C2719.47 630.589 2714.39 644.521 2708.62 657.904C2712.7 664.123 2716.58 670.742 2720.26 677.707V677.804C2734.89 705.466 2745.73 735.069 2752.85 766.661C2759.91 798.252 2763.5 827.058 2763.5 853.127H2648.57C2648.57 838.103 2646.78 818.948 2643.25 795.666C2641.81 786.014 2640.02 777.108 2637.93 768.75C2631.11 777.506 2623.6 786.113 2615.39 794.471C2594.05 816.211 2567.78 833.971 2536.58 847.802C2505.39 861.632 2472.41 868.547 2432.9 868.548C2393.4 868.548 2357.88 861.038 2326.29 846.014C2294.7 830.99 2269.82 809.694 2251.66 782.033C2233.51 754.371 2224.4 721.982 2224.4 684.868C2224.4 650.143 2233.31 619.345 2251.07 592.48C2268.83 565.616 2293.5 544.723 2325.1 529.699C2356.69 514.724 2392.61 507.209 2432.9 507.209C2466.83 507.209 2498.08 512.187 2526.48 522.037C2554.94 531.937 2579.02 543.376 2598.77 556.411C2601.16 557.953 2603.45 559.546 2605.74 561.138C2607.38 552.084 2608.28 543.575 2608.28 535.665C2608.28 507.209 2603.75 481.538 2594.64 458.654C2585.54 435.719 2571.91 417.759 2553.75 404.725C2535.59 391.69 2513.85 385.169 2488.57 385.169C2468.03 385.17 2449.87 389.104 2434.05 397.014C2418.28 404.924 2406.24 415.171 2397.93 427.807C2389.62 440.444 2385.09 454.225 2384.3 469.25H2237.39C2239.77 435.27 2251.02 402.881 2271.17 372.085C2291.32 341.291 2319.52 316.414 2355.89 297.459C2392.26 278.505 2435.29 269.004 2485.04 269.003ZM2450.72 614.868C2425.44 614.868 2405.15 621.189 2389.72 633.825C2374.35 646.462 2366.64 663.428 2366.64 684.771C2366.64 707.706 2374.3 725.666 2389.72 738.7C2405.15 751.734 2424.7 758.251 2448.38 758.251C2469.72 758.25 2489.87 752.528 2508.82 741.086V741.037C2527.78 729.545 2544.35 713.772 2558.57 693.623C2564.74 684.917 2570.02 675.814 2574.54 666.411C2570.17 662.531 2565.69 658.752 2560.91 655.12C2544.29 642.484 2526.53 632.632 2507.58 625.517C2488.62 618.453 2469.67 614.868 2450.72 614.868Z"/></svg>