<svg width="281" height="281" viewBox="0 0 281 281" fill="none" xmlns="http://www.w3.org/2000/svg">
<g clip-path="url(#clip0_1755_736)">
<rect width="280.549" height="280.549" rx="64.494" fill="white"/>
<g opacity="0.5">
<g clip-path="url(#clip1_1755_736)">
<rect width="280.549" height="280.549" fill="#F8F9FA"/>
<path d="M0 193.5H281.856" stroke="#007AFF" stroke-width="0.27525"/>
<path d="M0 140.928H281.856" stroke="#007AFF" stroke-width="0.27525"/>
<path d="M0 88.355H281.856" stroke="#007AFF" stroke-width="0.27525"/>
<path d="M193.5 281.856V0" stroke="#007AFF" stroke-width="0.27525"/>
<path d="M140.93 281.856V0" stroke="#007AFF" stroke-width="0.27525"/>
<path d="M88.3555 281.856V0" stroke="#007AFF" stroke-width="0.27525"/>
<path d="M281.856 281.856L0 0" stroke="#007AFF" stroke-width="0.27525"/>
<path d="M0 281.856L281.856 0" stroke="#007AFF" stroke-width="0.27525"/>
<rect x="18.3555" y="18.3564" width="243.836" height="243.836" stroke="#007AFF" stroke-width="0.27525"/>
<circle cx="139.998" cy="140" r="52.5727" stroke="#007AFF" stroke-width="0.27525"/>
<circle cx="139.999" cy="140" r="74.0422" stroke="#007AFF" stroke-width="0.27525"/>
<circle cx="140.928" cy="140.928" r="122.486" stroke="#007AFF" stroke-width="0.27525"/>
</g>
<rect x="0.137625" y="0.137625" width="280.274" height="280.274" stroke="#FF3B30" stroke-width="0.27525"/>
</g>
<rect width="280.549" height="287.197" transform="translate(0 -3.32422)" fill="#FF6B00"/>
<g clip-path="url(#clip2_1755_736)">
<path d="M36.7344 141.174C36.7344 169.705 59.8632 192.834 88.3941 192.834V192.834C116.925 192.834 140.054 169.705 140.054 141.174V141.174C140.054 112.643 116.925 89.5145 88.3941 89.5145V89.5145C59.8632 89.5145 36.7344 112.643 36.7344 141.174V141.174Z" fill="#FFF9EE"/>
<path d="M82.3984 165.944C82.3984 176.573 91.0151 185.19 101.644 185.19V185.19C112.273 185.19 120.89 176.573 120.89 165.944V165.944C120.89 155.315 112.273 146.698 101.644 146.698V146.698C91.0151 146.698 82.3984 155.315 82.3984 165.944V165.944Z" fill="black"/>
<path d="M141.828 140.921C141.828 112.39 164.957 89.2612 193.488 89.2612V89.2612C222.019 89.2612 245.148 112.39 245.148 140.921V140.921C245.148 169.452 222.019 192.581 193.488 192.581V192.581C164.957 192.581 141.828 169.452 141.828 140.921V140.921Z" fill="#FFF9EE"/>
<path d="M202.391 129.69C202.391 119.061 211.007 110.444 221.636 110.444V110.444C232.266 110.444 240.882 119.061 240.882 129.69V129.69C240.882 140.319 232.266 148.936 221.636 148.936V148.936C211.007 148.936 202.391 140.319 202.391 129.69V129.69Z" fill="black"/>
</g>
</g>
<defs>
<clipPath id="clip0_1755_736">
<rect width="280.549" height="280.549" rx="64.494" fill="white"/>
</clipPath>
<clipPath id="clip1_1755_736">
<rect width="280.549" height="280.549" fill="white"/>
</clipPath>
<clipPath id="clip2_1755_736">
<rect width="213.73" height="218.794" fill="white" transform="translate(34.0625 31.5459)"/>
</clipPath>
</defs>
</svg>
